<svg width="289" height="300" viewBox="0 0 289 300" fill="none" xmlns="http://www.w3.org/2000/svg">
<path d="M167.727 118.251C207.473 78.7012 247.044 39.3288 286.57 0C288.326 1.43914 288.101 2.79238 288.105 4.03613C288.196 36.3063 288.243 68.5767 288.396 100.847C288.408 103.368 287.254 104.951 285.645 106.562C258.985 133.247 232.341 159.947 205.714 186.665C204.361 188.022 202.72 189.194 201.938 191.107C203.805 192.692 205.853 192.266 207.763 192.257C232.899 192.136 258.035 191.966 283.171 191.827C288.863 191.796 288.868 191.828 288.874 197.357C288.907 230.326 288.94 263.295 288.96 296.265C288.96 297.392 289.194 298.58 288.53 299.6C286.828 300.042 286.2 298.681 285.276 297.902C275.541 289.697 267.07 280.188 258.544 270.829C241.071 251.648 223.382 232.686 205.197 214.184C200.871 209.782 196.488 205.435 192.205 200.991C190.73 199.461 189.122 198.746 186.971 198.755C158.68 198.874 130.389 198.948 102.098 198.986C100.315 198.989 98.9844 199.619 97.7753 200.835C81.526 217.184 65.1545 233.414 49.0701 249.924C43.9773 255.152 41.0328 262.097 35.8844 267.458C25.5571 278.213 15.1673 288.884 4.05788 298.836C3.38194 299.441 2.75945 300.204 1.6253 299.95C0.503528 298.824 0.844718 297.351 0.842543 296.006C0.789242 263.037 0.801693 230.067 0.669464 197.098C0.656332 193.822 1.77614 192.917 4.91526 192.948C17.9535 193.076 30.9945 193.059 44.0334 192.959C57.0683 192.859 70.102 192.603 83.1359 192.397C84.2667 192.379 85.6837 192.699 86.2765 191.437C86.8966 190.117 85.6673 189.339 84.8644 188.54C57.8732 161.684 30.9026 134.808 3.83643 108.029C1.26089 105.48 -0.0162395 102.923 0.000155856 99.1998C0.138674 67.7453 0.0887422 36.2899 0.117354 4.83483C0.118484 3.60173 -0.19985 2.26387 0.811394 1.13715C2.50032 0.912405 3.22737 2.3119 4.1548 3.22658C32.0112 30.6999 59.8182 58.2233 87.6929 85.678C105.444 103.161 123.283 120.555 141.099 137.972C144.493 141.29 144.809 141.261 148.086 137.976C154.579 131.465 161.063 124.945 167.727 118.251Z" fill="#F6FF00"/>
</svg>
